<svg width="21" height="21" viewBox="0 0 21 21" fill="none" xmlns="http://www.w3.org/2000/svg">
<path d="M1 10.5C1 6.022 1 3.782 2.391 2.391C3.782 1 6.021 1 10.5 1C14.978 1 17.218 1 18.609 2.391C20 3.782 20 6.021 20 10.5C20 14.978 20 17.218 18.609 18.609C17.218 20 14.979 20 10.5 20C6.022 20 3.782 20 2.391 18.609C1 17.218 1 14.979 1 10.5Z" stroke="white" stroke-width="1.5" stroke-linecap="round" stroke-linejoin="round"/>
<path d="M16.008 5H15.998M15 10.5C15 11.6935 14.5259 12.8381 13.682 13.682C12.8381 14.5259 11.6935 15 10.5 15C9.30653 15 8.16193 14.5259 7.31802 13.682C6.47411 12.8381 6 11.6935 6 10.5C6 9.30653 6.47411 8.16193 7.31802 7.31802C8.16193 6.47411 9.30653 6 10.5 6C11.6935 6 12.8381 6.47411 13.682 7.31802C14.5259 8.16193 15 9.30653 15 10.5Z" stroke="white" stroke-width="1.5" stroke-linecap="round" stroke-linejoin="round"/>
</svg>
